<?xml version="1.0" encoding="UTF-8"?>
<svg id="_flag" data-name="NOPE" xmlns="http://www.w3.org/2000/svg" viewBox="0 0 75.36 64.92">
  <defs>
    <style>
      .cls-1 {
        fill: #fff;
        stroke: #fff;
        stroke-linecap: round;
        stroke-linejoin: round;
        stroke-width: .12px;
      }
    </style>
  </defs>
  <path class="cls-1" d="m1.92,0s.12,9.24,8.64,15.12c0,0,3.48,4.44,10.08,5.04,0,0-10.8-1.44-15.12,2.88l4.56.24s-4.8,2.16-5.52,4.8l1.92.24s-5.88,6.24-6.48,7.44c0,0,12.84,51.36,75.36,17.76,0,0-36.24,14.28-42.48-15.36,0,0-4.56,6.96-.96,18,0,0-5.52-10.68,1.2-21.6,0,0-11.28,9.36-15.12,14.88,0,0,9.84-14.4,17.04-17.28,0,0,2.52-1.44,3.84.48,0,0,1.8,2.04-4.08,3.36,0,0,3.6,1.68,6.48,1.92s10.2.72,2.4,7.2c0,0,11.04.96,16.56-3.6,0,0-6.36-3.24-7.44-5.52s-3.96-6.24-6.24-2.64c0,0,4.56-7.08,13.68-.48,0,0,3.96,3.36,4.32,4.08,0,0,1.56-5.4.96-7.44,0,0-2.28-1.68-2.64-2.4,0,0-.24-1.44.24-1.44s2.16,2.64,2.16,2.64c0,0,.12-4.56-.96-4.8s-4.56-.24-6-.96-3.84-.96-4.8-1.2-3.12-1.44-3.12-1.44c0,0-2.4-3.36-2.88-3.36,0,0,4.44,3.05,5.04,3.77,0,0,1.75.94,2.88.48.8-.32,1.61-1.19,1.2-1.44-.74-.45-2.28-.36-3.36-.72s-5.28-4.13-6.72-5.93-4.8-3.72-6.48-4.32l.48,1.44s-4.8-3.12-7.92-3.12-17.64.24-17.28-5.28c0,0-1.2,6.72,7.44,8.16s10.44,2.04,11.52,3.6c0,0-14.76-1.2-17.04-1.2S5.88,9.6,1.92,0Z"/>
</svg>